<?xml version="1.0" encoding="utf-8"?>
<!-- Generator: Adobe Illustrator 24.3.0, SVG Export Plug-In . SVG Version: 6.00 Build 0)  -->
<svg version="1.1" id="Layer_1" xmlns="http://www.w3.org/2000/svg" xmlns:xlink="http://www.w3.org/1999/xlink" x="0px" y="0px"
	 viewBox="0 0 512 512" style="enable-background:new 0 0 512 512;" xml:space="preserve">
<style type="text/css">
	.st0{fill:#A07EBA;}
	.st1{fill:#682A8D;}
</style>
<g>
	<path class="st0" d="M189.96,14.59c17.46-7.74,36.13-13.17,55.28-14.19c31.1-2.29,62.81,5.15,89.52,21.28
		c27.62,16.5,49.86,41.86,62.43,71.5c2.85,6.59,5.09,13.42,7.19,20.29c-3.49-2.05-6.94-4.21-10.8-5.5
		c-12.23-4.46-25.64-4.08-37.78-8.85c-5.19-2.02-9.97-5.05-14.12-8.74c-12.73-11.44-23.3-25.05-36.16-36.36
		c-8.35-7.71-17.46-14.7-27.54-20.01c-15.63-8.04-33.7-11.48-51.17-9.45c-5.46,0.6-11.23,2.59-16.59,0.51
		c-3.77-2.35-5.57-6.91-9.52-9.1C197.49,13.98,193.55,14.58,189.96,14.59"/>
	<path class="st1" d="M115.17,92.19c10.89-25.16,28.73-47.29,51.04-63.23c-2.1,2.96-4.65,6.03-4.58,9.87
		c-0.39,5.04,4.22,10.03,1.15,14.86c-3.56,5.65-8.74,10.05-12.51,15.56c-9.78,13.31-15.02,29.64-15.79,46.09
		c-1.04,16.06,1.37,32.13,5.07,47.72c3.01,11.74,5.89,23.54,7.47,35.57c7.17-5.61,14.08-11.54,21.49-16.85
		c10.59-7.99,21.94-14.89,33.2-21.86c11.8-7.07,23.78-13.94,36.41-19.44c3.02-1.41,6.29-2.23,9.61-2.51
		c-3.66,5.03-9.51,7.61-14.6,10.88c-18.98,11.3-37.49,23.58-54.21,38.07c-13.78,12.47-27.15,25.72-37.24,41.42
		c-6.29,10.05-12.15,21.89-9.85,34.08c1.41,8.46,9.77,12.81,17.06,15.46c-14.85-0.22-29.74,0.52-44.55-0.39
		c-0.86-1.79-2.12-3.55-1.93-5.64c0.1-38.32,0.04-76.63,0.03-114.95C102.08,134.76,106.24,112.49,115.17,92.19"/>
	<path class="st1" d="M358.9,142.53c5.53-0.58,11.64-0.84,16.54,2.26c3.09,1.76,3.42,5.74,3.39,8.92
		c0.12,5.65-2.29,10.91-5.01,15.72c-5.9,10.02-14.13,18.38-22.69,26.14c-15.25,13.44-32.25,24.76-49.84,34.93
		c-23.4,14.09-49.16,24.12-75.78,30.17c-13.19,2.82-26.73,5.02-40.24,3.81c-3.86-0.52-8.42-1.12-10.87-4.52
		c-1.91-5.16,1.46-10.32,4.14-14.54c8.88-12.65,20.74-22.82,32.74-32.41c30.1-23.4,63.97-41.61,99.04-56.35
		C325.98,150.39,342.07,144.59,358.9,142.53 M203.94,230.85c10.1,10.02,25.78,13.6,39.22,8.97c10.04-3.48,18.52-11.24,22.63-21.08
		c4.43-10,3.92-21.85-0.7-31.7C243.09,199.15,221.88,213.16,203.94,230.85"/>
	<path class="st1" d="M358.32,205.81c20.69-17.26,40.69-37.17,50.78-62.66c0.41,6.63,0.34,13.28,0.32,19.92
		c-0.03,36.65,0.05,73.3-0.03,109.94c0.21,3.05-2.76,5.27-5.65,4.87c-64.42-0.06-128.84,0.17-193.26-0.11
		c31.5-6.18,61.59-18.42,89.54-34.03C320.63,233.03,340.29,220.44,358.32,205.81"/>
	<path d="M256.61,323.58c6.48-6.16,15.02-9.68,23.75-11.16c10.9-1.62,22.56-0.59,32.26,4.95c5.3,2.89,9.69,7.13,13.56,11.72
		c-5.82,4.6-12.07,8.61-17.97,13.11c-2.74-3.55-6.01-6.99-10.35-8.5c-8.99-3.39-20.45-0.94-26.3,6.98
		c-5.73,7.47-6.65,17.69-4.76,26.67c1.5,7.56,6.56,14.62,14,17.25c10.1,3.08,22.29,0.47,28.68-8.41
		c6.09,4.68,12.32,9.21,18.49,13.79c-7.29,8.33-17.42,14.21-28.42,15.8c-15.27,2.74-32.62-0.52-43.92-11.75
		c-9.21-9.08-13.39-22.34-13.17-35.07C242.31,345.98,246.91,332.51,256.61,323.58"/>
	<path d="M363.84,313.14c12.61-2.96,26.52-1.36,37.68,5.43c7.68,4.65,13.77,11.85,17.2,20.14c5.56,12.97,5.48,28.17-0.02,41.14
		c-3.95,9.23-11.08,17.13-20.09,21.62c-14.28,7.13-31.94,6.94-46.13-0.36c-12.59-6.6-21.01-19.81-22.8-33.78
		c-0.99-8.96-0.71-18.33,2.7-26.79C337.24,326.8,349.57,316.11,363.84,313.14 M370.22,332.89c-5.43,1.16-10.26,4.62-13.19,9.33
		c-4.88,7.93-5.65,18-3.13,26.86c2.06,7.54,8,14.15,15.75,15.97c6.83,1.36,14.58,0.84,20.18-3.69c6.88-5.18,9.52-14.15,9.47-22.44
		c-0.15-6.83-1.77-13.99-6.36-19.24C387.56,333.17,378.23,330.96,370.22,332.89"/>
	<path d="M89.14,313.47c26.16-0.02,52.32-0.02,78.5,0c-0.03,6.37-0.05,12.74,0.01,19.12c-9.42,0.11-18.85,0.03-28.27,0.05
		c-0.01,24.13-0.04,48.26,0.01,72.39c-7.41,0.01-14.83,0-22.24,0.01c-0.03-24.14,0-48.29-0.02-72.43
		c-9.33,0.06-18.65,0.02-27.98,0.03C89.13,326.26,89.15,319.87,89.14,313.47"/>
	<path d="M189.8,313.45c6.38,0.08,12.77-0.15,19.14,0.14c12.18,30.57,24.88,60.92,37.24,91.42c-8.3,0.05-16.6,0.03-24.9,0
		c-1.53-4.5-3.37-8.88-4.87-13.38c-12.27,0.01-24.53-0.01-36.79,0.01c-1.65,4.49-3.46,8.91-5.08,13.41
		c-7.87-0.03-15.74-0.01-23.6-0.01C163.73,374.45,176.98,344.04,189.8,313.45 M186.49,373.57c4.73,0.07,9.44-0.34,14.18-0.32
		c2.97,0.16,5.96,0.22,8.93-0.14c-3.86-10.67-7.48-21.44-11.1-32.19C194.45,351.78,190.51,362.69,186.49,373.57"/>
	<path d="M117.15,420.37c12.64,0.04,25.28-0.06,37.92,0.06c8.63,0.35,18.18,1.8,24.45,8.33c5.5,5.49,5.51,14.09,3.9,21.19
		c-1.62,5.82-6.54,9.89-11.69,12.6c6.77,1.1,13.38,4.79,16.87,10.84c4.54,8.29,4.08,18.97-0.71,27.05
		c-5.63,8.5-16.55,11.12-26.13,11.47c-14.87,0.16-29.74,0.05-44.59,0.05C117.13,481.43,117.15,450.9,117.15,420.37 M138.21,438.25
		c0,6.06,0.07,12.12-0.02,18.19c6.01-0.14,12.12,0.55,18.04-0.8c7.34-1.61,8.11-14.07,0.79-16.28
		C150.91,437.57,144.47,438.43,138.21,438.25 M138.2,474.06c0.05,6.28,0.04,12.55,0,18.83c8.65-0.31,17.51,0.9,25.98-1.34
		c6.69-2.5,6.42-13.61-0.28-15.93C155.6,472.96,146.75,474.39,138.2,474.06"/>
	<path d="M200.42,420.4c23.01-0.05,46.02,0,69.04-0.03c-0.07,6.38-0.03,12.78-0.03,19.16c-15.53,0.04-31.05,0.01-46.57,0.02
		c0.02,5.53,0.05,11.08-0.02,16.62c13.03,0.25,26.11-0.39,39.13,0.33c-0.25,6.23,0.2,12.47-0.33,18.68
		c-12.92-0.03-25.84,0-38.76-0.01c0.02,5.86-0.05,11.74,0.04,17.61c15.87-0.04,31.74-0.03,47.6-0.02c-0.06,6.39-0.05,12.79,0,19.18
		c-23.36,0.04-46.73,0.13-70.09-0.04C200.46,481.4,200.47,450.89,200.42,420.4"/>
	<path d="M281.33,420.42c7.47-0.09,14.94-0.02,22.4-0.04c-0.02,24.13-0.06,48.27,0.03,72.42c13.46-0.07,26.93-0.02,40.4-0.03
		c0,6.4,0.01,12.8,0.01,19.2c-20.95,0.03-41.89,0.03-62.84,0.01C281.38,481.45,281.38,450.93,281.33,420.42"/>
	<path d="M355.13,420.37c7.4,0.01,14.8,0,22.2-0.01c0.02,24.14-0.01,48.28,0.01,72.43c13.49-0.04,26.97-0.03,40.45-0.01
		c-0.04,6.4,0,12.81-0.02,19.22c-20.88-0.01-41.74-0.01-62.61,0C355.18,481.45,355.22,450.92,355.13,420.37"/>
</g>
</svg>
